# xmcd
#
# Track frame offsets: 
#        150
#        16133
#        31827
#        63935
#        74997
#        107562
#        120185
#        139356
#        165784
#        191421
#        200181
#        226997
#        262899
#        286009
#        306442
#
# Disc length: 4290 seconds
#
# Revision: 0
# Processed by: cddbd v1.4PL0 Copyright (c) Steve Scherf et al.
# Submitted via: ExactAudioCopy v0.90b4
#
DISCID=cb10c00f
DTITLE=Motor City Josh - Living Like A King In The Ghetto
DYEAR=2002
DGENRE=
TTITLE0=Real Love
TTITLE1=Living Like A King In The Ghetto
TTITLE2=Bar Life
TTITLE3=Crazy 'Bout You Baby
TTITLE4=Shut Up Woman
TTITLE5=5231 Moran Street Blues
TTITLE6=Goin' Fishin'
TTITLE7=Gas Station Sandwich
TTITLE8=Conductor, Conductor
TTITLE9=Day Shift/Night Shift
TTITLE10=So Long
TTITLE11=Another Man's Woman
TTITLE12=On Line
TTITLE13=Behind Every Good Man
TTITLE14=I've Been Your Fool For So Long
EXTD=
EXTT0=
EXTT1=
EXTT2=
EXTT3=
EXTT4=
EXTT5=
EXTT6=
EXTT7=
EXTT8=
EXTT9=
EXTT10=
EXTT11=
EXTT12=
EXTT13=
EXTT14=
PLAYORDER=
